HIERARCHY
ROOT pelvis
{
  OFFSET 0 100 0
  CHANNELS 6 Xposition Yposition Zposition Zrotation Xrotation Yrotation
  JOINT pelvis_right_femur
  {
    OFFSET -10.78128 -3.44521 -0.5502486
    CHANNELS 3 Zrotation Xrotation Yrotation
    JOINT right_femur_tibia
    {
      OFFSET -0.8047443 -44.0398 -0.1307829
      CHANNELS 3 Zrotation Xrotation Yrotation
      JOINT right_tibia_foot
      {
        OFFSET 3.006224 -47.83518 -5
        CHANNELS 3 Zrotation Xrotation Yrotation
        End Site
        {
          OFFSET 0 -5 15
        }
      }
    }
  }
  JOINT pelvis_left_femur
  {
    OFFSET 10.78128 -3.44521 -0.5502486
    CHANNELS 3 Zrotation Xrotation Yrotation
    JOINT left_femur_tibia
    {
      OFFSET 0.8047443 -44.0398 -0.1307829
      CHANNELS 3 Zrotation Xrotation Yrotation
      JOINT left_tibia_foot
      {
        OFFSET -4.370144 -48.10324 -4.275266
        CHANNELS 3 Zrotation Xrotation Yrotation
        End Site
        {
          OFFSET 0 -5 15
        }
      }
    }
  }
  JOINT pelvis_spine1
  {
    OFFSET 0 6.468898 -3.129235
    CHANNELS 3 Zrotation Xrotation Yrotation
    JOINT spine1
    {
      OFFSET 0 23.15396 4.99043
      CHANNELS 3 Zrotation Xrotation Yrotation
      JOINT spine2
      {
        OFFSET 0 20.79997 -5.064912
        CHANNELS 3 Zrotation Xrotation Yrotation
        JOINT neck
        {
          OFFSET 0 14.38658 9.616178
          CHANNELS 3 Zrotation Xrotation Yrotation
          End Site
          {
            OFFSET 0 20 0
          }
        }
      }
      JOINT right_manubrium
      {
        OFFSET -5.722621 16.35077 3.967754
        CHANNELS 3 Zrotation Xrotation Yrotation
        JOINT right_clavicle
        {
          OFFSET -13.16364 1.694482 -4.693211
          CHANNELS 3 Zrotation Xrotation Yrotation
          JOINT right_humerus
          {
            OFFSET -28.5034 -0.3100689 -2.792744
            CHANNELS 3 Zrotation Xrotation Yrotation
            JOINT right_radius
            {
              OFFSET -25.15693 0.02248979 -1.271978
              CHANNELS 3 Zrotation Xrotation Yrotation
              End Site
              {
                OFFSET -15 0 0
              }
            }
          }
        }
      }
      JOINT left_manubrium
      {
        OFFSET 5.722621 16.35077 3.967754
        CHANNELS 3 Zrotation Xrotation Yrotation
        JOINT left_clavicle
        {
          OFFSET 13.16364 1.694482 -4.693211
          CHANNELS 3 Zrotation Xrotation Yrotation
          JOINT left_humerus
          {
            OFFSET 29.39168 -1.063119 -2.237045
            CHANNELS 3 Zrotation Xrotation Yrotation
            JOINT left_radius
            {
              OFFSET 24.59957 -0.9528479 0.9047498
              CHANNELS 3 Zrotation Xrotation Yrotation
              End Site
              {
                OFFSET 15 -0 -0
              }
            }
          }
        }
      }
    }
  }
}
MOTION
Frames: 17
Frame Time: 0.0416666666667
0 103.5113 0 2.178104 -1.207097 0.2801289 1.255118 -10.08213 8.73862 -0 34.62869 -0 -5.282961 -17.96855 -2.385102 -8.031637 10.10491 -23.50514 -0 5.127623 -0 7.687582 -16.14851 26.58644 -4.336705 -5.054615 4.941254 2.017324 9.214511 -7.752636 0.8266235 22.81565 7.187883 3.259122 -23.09624 8.807399 6.376874 -19.76713 11.57931 86.30791 35.94595 -19.78482 -0 0 16.2581 -7.573323 8.238652 4.619646 5.486509 -19.47569 -1.706326 -94.78993 29.74896 22.94671 0 0 -15.97606 3.498663 17.88107 9.55859
0.329056 103.5104 1.353098 2.022162 -1.095769 0.4635495 1.534809 -11.08186 8.620615 -0 34.3121 -0 -5.355213 -17.55816 -2.404719 -7.887616 10.25982 -23.3763 -0 5.165537 -0 7.558798 -16.42266 26.42106 -4.275717 -4.859905 4.871158 2.110463 9.187814 -7.786092 0.8326469 22.7073 7.233236 3.301855 -23.22522 8.834872 6.369423 -19.71989 11.58933 86.2869 35.92389 -19.82813 -0 0 16.15029 -7.603248 8.263629 4.640966 5.545307 -19.50123 -1.739829 -94.70253 29.71025 22.80877 0 0 -16.26252 3.553562 17.75046 9.519391
0.6703848 103.448 2.80803 1.817014 -0.8809476 0.5639856 1.873713 -12.5653 8.346519 -0 32.76135 -0 -5.435936 -16.80088 -2.18997 -7.714971 10.45494 -23.13621 -0 5.269618 -0 7.341721 -16.86393 26.12916 -4.22704 -4.566897 4.823414 2.281425 9.149513 -7.806271 0.8535655 22.50235 7.294365 3.378373 -23.42964 8.866771 6.348483 -19.61869 11.61332 86.25897 35.89255 -19.92446 -0 0 15.93573 -7.642916 8.304727 4.657995 5.686637 -19.53486 -1.804324 -94.55289 29.64745 22.49975 0 0 -16.82454 3.648861 17.56329 9.418769
1.038277 103.27 4.423034 1.607222 -0.5424191 0.5766913 2.186654 -14.40569 7.894946 -0 29.56013 -0 -5.503852 -15.62532 -1.656385 -7.568129 10.67822 -22.75898 -0 5.495948 -0 7.024031 -17.46923 25.68096 -4.212879 -4.208468 4.82934 2.512112 9.101623 -7.784509 0.9056626 22.20691 7.357736 3.492489 -23.69963 8.903998 6.293286 -19.44352 11.64117 86.24686 35.85109 -20.09152 -0 0 15.60063 -7.690189 8.364299 4.668539 5.926879 -19.59865 -1.883802 -94.31486 29.565 21.97771 0 0 -17.68477 3.777114 17.32657 9.246125
1.445023 102.9242 6.263701 1.452406 -0.08054569 0.5570515 2.380477 -16.35918 7.285884 -0 24.69376 -0 -5.541825 -14.02567 -0.8157028 -7.512055 10.9321 -22.22658 -0 5.923417 -0 6.593055 -18.20091 25.04612 -4.241316 -3.850773 4.901097 2.748641 9.046901 -7.696781 1.002381 21.86743 7.407008 3.639563 -24.00395 8.951126 6.17612 -19.18174 11.64609 86.29207 35.79762 -20.33978 -0 0 15.15368 -7.743176 8.444986 4.677864 6.256648 -19.72936 -1.942951 -93.95849 29.4725 21.24376 0 0 -18.78105 3.914669 17.0482 9.016207
1.892036 102.3947 8.394437 1.371693 0.4871685 0.5833982 2.447956 -18.17571 6.554901 -0 18.63397 -0 -5.561839 -12.18972 0.2298302 -7.551425 11.23078 -21.53093 -0 6.632121 -0 6.014063 -18.97121 24.18664 -4.286454 -3.551006 4.99248 2.943382 8.986612 -7.579596 1.110628 21.54821 7.449014 3.79738 -24.29598 8.99519 6.000475 -18.84902 11.59977 86.43451 35.73496 -20.66411 -0 0 14.60591 -7.794766 8.551702 4.69028 6.632035 -19.92558 -1.973701 -93.49497 29.3708 20.37271 0 0 -19.96203 4.036641 16.73491 8.780964
2.368434 101.7165 10.88024 1.344981 1.131618 0.7406942 2.441416 -19.60633 5.762073 -0 12.1409 -0 -5.59398 -10.39486 1.339054 -7.640707 11.58009 -20.67214 -0 7.728261 -0 5.23126 -19.64401 23.05907 -4.295067 -3.352692 5.035298 3.066039 8.918175 -7.49601 1.183279 21.30302 7.495949 3.938112 -24.53305 9.013768 5.79133 -18.46609 11.48548 86.70341 35.66735 -21.0565 -0 0 13.96437 -7.838501 8.690188 4.708913 6.982688 -20.16001 -1.989528 -92.96429 29.25645 19.47704 0 0 -21.03788 4.118025 16.39101 8.604593
2.857048 100.9731 13.80065 1.295081 1.804368 1.127684 2.458113 -20.37999 5.028316 -0 6.281388 -0 -5.708846 -8.922273 2.349364 -7.665098 11.93823 -19.66879 -0 9.408723 -0 4.158792 -19.98822 21.62122 -4.175868 -3.278128 4.979967 3.124432 8.830782 -7.499274 1.200288 21.1323 7.541231 4.041927 -24.70392 8.983898 5.592406 -18.02943 11.32472 87.09797 35.5962 -21.52034 -0 0 13.22912 -7.879244 8.864921 4.736959 7.198344 -20.38298 -2.025569 -92.44018 29.12536 18.692 0 0 -21.80982 4.129803 16.01524 8.539272
3.344413 100.285 17.23301 1.149258 2.461865 1.812029 2.567407 -20.27316 4.457573 -0 1.904674 -0 -5.963458 -7.930615 3.132186 -7.524418 12.21534 -18.55786 -0 11.89593 -0 2.734927 -19.72419 19.86056 -3.852951 -3.339921 4.813545 3.135902 8.717074 -7.609532 1.154964 21.01567 7.573813 4.094925 -24.80708 8.888473 5.437216 -17.53658 11.15176 87.59755 35.52227 -22.0479 -0 0 12.40857 -7.927797 9.078192 4.77847 7.1939 -20.536 -2.112768 -92.00256 28.9741 18.13547 0 0 -22.14078 4.051774 15.60658 8.61529
3.830997 99.80149 21.21222 0.8720183 3.059629 2.737378 2.767043 -19.09366 4.102043 0 -0.5292409 0 -6.395931 -7.415357 3.60033 -7.168108 12.23002 -17.4006 -0 15.49017 -0 0.9444802 -18.47823 17.81461 -3.28329 -3.545589 4.577259 3.113519 8.582664 -7.796544 1.043713 20.92915 7.58384 4.084696 -24.83367 8.714881 5.338967 -17.00083 11.00984 88.16091 35.44857 -22.60057 -0 0 11.53177 -8.001883 9.330778 4.841015 6.932852 -20.5463 -2.266836 -91.74015 28.79611 17.90798 0 0 -21.97288 3.875334 15.1663 8.841319
4.328715 99.65104 25.71508 0.5035933 3.469387 3.726681 3.032051 -16.81745 3.961084 0 -1.259701 0 -6.966527 -7.381938 3.78635 -6.676145 11.75103 -16.25833 -0 20.47131 -0 -1.067013 -16.04903 15.64984 -2.510225 -3.839764 4.38474 3.054337 8.476186 -7.963173 0.8714351 20.88814 7.563199 4.009269 -24.75101 8.458616 5.297526 -16.45442 10.94922 88.72599 35.38069 -23.09431 -0 0 10.66309 -8.124108 9.619481 4.939127 6.446897 -20.39903 -2.474356 -91.68093 28.58697 18.01973 0 0 -21.36803 3.610776 14.70234 9.192942
4.850324 99.89986 30.64332 0.1717288 3.48062 4.510494 3.309434 -13.5251 3.989806 0 -1.096322 0 -7.562875 -7.894644 3.82556 -6.235278 10.45205 -15.18437 -0 27.09456 -0 -3.02536 -12.46181 13.63888 -1.66634 -4.097613 4.416065 2.94038 8.486399 -7.953701 0.6537584 20.94998 7.50108 3.878093 -24.50165 8.119136 5.307905 -15.9545 11.02938 89.19816 35.3296 -23.38941 -0 0 9.907107 -8.3295 9.93696 5.09831 5.820833 -20.13696 -2.69732 -91.79567 28.34189 18.40381 0 0 -20.48601 3.283638 14.22897 9.61821
5.404814 100.5395 35.83901 0.05801852 2.995488 4.916753 3.43755 -9.24784 4.064775 0 -0.7903026 0 -8.065111 -8.973646 3.848703 -5.919702 7.998623 -14.16458 -0 35.0759 -0 -4.61933 -8.279751 12.09703 -0.9646848 -4.20389 4.788684 2.756642 8.654897 -7.689236 0.4308804 21.16387 7.376535 3.720887 -24.06314 7.699883 5.373192 -15.59336 11.26494 89.44476 35.31004 -23.33004 -0 0 9.37159 -8.673395 10.26773 5.351168 5.146101 -19.83123 -2.896471 -92.00735 28.05946 18.96011 0 0 -19.50448 2.93076 13.76083 10.05909
5.996153 101.4833 41.1035 0.3161099 2.020671 4.973701 3.234832 -4.026887 4.069288 0 -0.9313746 0 -8.360181 -10.56011 3.96525 -5.719552 4.124887 -13.1681 -0 43.66615 -0 -5.628228 -4.342124 11.24223 -0.6275641 -4.082098 5.545147 2.492444 8.976027 -7.161679 0.2519868 21.55945 7.166935 3.573944 -23.43516 7.208663 5.48904 -15.47424 11.62675 89.3229 35.33141 -22.76857 -0 0 9.165132 -9.224424 10.58927 5.735395 4.516624 -19.55607 -3.032832 -92.22339 27.73951 19.58411 0 0 -18.59528 2.592793 13.31074 10.45877
6.610391 102.6167 46.25506 0.959643 0.7315619 4.854971 2.628772 1.875571 3.991857 0 -1.750454 0 -8.375198 -12.38807 4.222938 -5.584884 -1.108051 -12.21864 -0 51.44037 -0 -6.016499 -1.406393 11.07728 -0.7392707 -3.766628 6.577567 2.151781 9.370609 -6.468536 0.1470693 22.11237 6.869666 3.457761 -22.63049 6.667967 5.597262 -15.66334 12.0095 88.74232 35.37521 -21.63385 -0 0 9.388076 -10.04984 10.87044 6.287969 4.036368 -19.35188 -3.062674 -92.37467 27.37831 20.19756 0 0 -17.88977 2.305415 12.88352 10.77209
7.234895 103.7961 51.17731 1.905727 -0.6474962 4.766549 1.656403 8.102467 3.882163 0 -3.231854 0 -8.081787 -14.19947 4.627844 -5.437816 -7.389009 -11.3261 -0 57.00225 -0 -5.857559 0.1727671 11.52964 -1.259283 -3.351763 7.725026 1.742547 9.7506 -5.722482 0.1179964 22.76249 6.506579 3.373965 -21.68513 6.112738 5.620845 -16.17514 12.31408 87.68493 35.40024 -19.92523 -0 0 10.10792 -11.18439 11.08139 7.029244 3.779194 -19.21656 -2.965683 -92.43612 26.97861 20.76966 0 0 -17.43622 2.079493 12.4798 10.98535
7.883444 104.8365 55.87381 2.956952 -1.869818 4.795956 0.5010127 14.2122 3.797921 0 -5.119832 0 -7.507584 -15.86109 5.137345 -5.132818 -14.10059 -10.41338 -0 59.17516 -0 -5.34853 0.6619852 12.5205 -1.993937 -2.974599 8.79097 1.269914 10.044 -5.013137 0.1249141 23.40571 6.138702 3.298253 -20.67808 5.598697 5.468297 -16.95642 12.48618 86.22483 35.3455 -17.71942 -0 0 11.35393 -12.61205 11.19838 7.954339 3.766305 -19.08769 -2.766079 -92.4459 26.55757 21.33729 0 0 -17.15576 1.883306 12.09674 11.1359
